<svg width="20" height="20" viewBox="0 0 20 20" fill="none" xmlns="http://www.w3.org/2000/svg">
<path d="M2.70837 7.70829H17.2917M6.13421 3.95829V2.29163M13.8425 3.95829V2.29163M14.375 3.95829H5.62504C4.85149 3.95829 4.10963 4.26558 3.56265 4.81256C3.01566 5.35955 2.70837 6.10141 2.70837 6.87496V14.7916C2.70837 15.5652 3.01566 16.307 3.56265 16.854C4.10963 17.401 4.85149 17.7083 5.62504 17.7083H14.375C15.1486 17.7083 15.8905 17.401 16.4374 16.854C16.9844 16.307 17.2917 15.5652 17.2917 14.7916V6.87496C17.2917 6.10141 16.9844 5.35955 16.4374 4.81256C15.8905 4.26558 15.1486 3.95829 14.375 3.95829Z" stroke="#FFFBF5" stroke-width="1.25" stroke-linecap="round" stroke-linejoin="round"/>
</svg>
