<svg width="20" height="20" viewBox="0 0 20 20" fill="none" xmlns="http://www.w3.org/2000/svg">
<path d="M16.0983 11.25H12.8691C12.4411 11.2495 12.0303 11.4188 11.727 11.7208C11.4236 12.0228 11.2523 12.4327 11.2508 12.8608V16.09C11.2506 16.3025 11.2923 16.5131 11.3735 16.7095C11.4548 16.906 11.574 17.0845 11.7243 17.2348C11.8746 17.3851 12.0531 17.5043 12.2496 17.5856C12.446 17.6668 12.6565 17.7085 12.8691 17.7083H16.0983C16.5262 17.7065 16.9359 17.5352 17.2377 17.2318C17.5395 16.9285 17.7087 16.5179 17.7083 16.09V12.8608C17.7085 12.6493 17.667 12.4398 17.5862 12.2444C17.5054 12.049 17.3868 11.8714 17.2372 11.7219C17.0877 11.5723 16.9101 11.4537 16.7147 11.3729C16.5192 11.2921 16.3098 11.2506 16.0983 11.2508M7.13079 11.25H3.90163C3.47379 11.2524 3.0643 11.424 2.76262 11.7274C2.46095 12.0308 2.29162 12.4413 2.29163 12.8691V16.0983C2.29141 16.3098 2.3329 16.5192 2.41373 16.7147C2.49457 16.9101 2.61315 17.0877 2.7627 17.2372C2.91224 17.3868 3.08981 17.5054 3.28525 17.5862C3.48068 17.667 3.69014 17.7085 3.90163 17.7083H7.13079C7.5587 17.7087 7.96932 17.5395 8.27268 17.2377C8.57603 16.9359 8.74736 16.5262 8.74913 16.0983V12.8691C8.74935 12.6565 8.70764 12.446 8.62639 12.2496C8.54513 12.0531 8.42594 11.8746 8.27562 11.7243C8.1253 11.574 7.94681 11.4548 7.75036 11.3735C7.55392 11.2923 7.34338 11.2506 7.13079 11.2508M7.13079 2.29163H3.90163C3.69014 2.29141 3.48068 2.3329 3.28525 2.41373C3.08981 2.49457 2.91224 2.61315 2.7627 2.7627C2.61315 2.91224 2.49457 3.08981 2.41373 3.28525C2.3329 3.48068 2.29141 3.69014 2.29163 3.90163V7.13079C2.29118 7.5587 2.4604 7.96932 2.76219 8.27268C3.06398 8.57603 3.47373 8.74736 3.90163 8.74913H7.13079C7.34338 8.74935 7.55392 8.70764 7.75036 8.62639C7.94681 8.54513 8.1253 8.42594 8.27562 8.27562C8.42594 8.1253 8.54513 7.94681 8.62639 7.75036C8.70764 7.55392 8.74935 7.34338 8.74913 7.13079V3.90163C8.74736 3.47373 8.57603 3.06398 8.27268 2.76219C7.96932 2.4604 7.5587 2.29118 7.13079 2.29163ZM16.0983 2.29163H12.8691C12.4412 2.29118 12.0306 2.4604 11.7272 2.76219C11.4239 3.06398 11.2526 3.47373 11.2508 3.90163V7.13079C11.251 7.55993 11.4216 7.97144 11.725 8.27488C12.0285 8.57833 12.44 8.74891 12.8691 8.74913H16.0983C16.5262 8.74736 16.9359 8.57603 17.2377 8.27268C17.5395 7.96932 17.7087 7.5587 17.7083 7.13079V3.90163C17.7085 3.69014 17.667 3.48068 17.5862 3.28525C17.5054 3.08981 17.3868 2.91224 17.2372 2.7627C17.0877 2.61315 16.9101 2.49457 16.7147 2.41373C16.5192 2.3329 16.3098 2.29141 16.0983 2.29163Z" stroke="#022268" stroke-width="1.25" stroke-linecap="round" stroke-linejoin="round"/>
</svg>
