<svg width="20" height="20" viewBox="0 0 20 20" fill="none" xmlns="http://www.w3.org/2000/svg">
<path d="M6.63318 3.73596C7.60303 3.736 8.54694 4.04834 9.32556 4.62659C10.1042 5.20489 10.6761 6.01839 10.9564 6.9469C11.2367 7.87534 11.2107 8.86938 10.8822 9.78186C10.5536 10.6944 9.94009 11.4776 9.1322 12.0143L9.0697 12.0553L9.14001 12.0817C10.5213 12.5913 11.7156 13.5081 12.5638 14.7115C12.6071 14.7727 12.6381 14.8426 12.6547 14.9156C12.6711 14.9884 12.6731 15.0638 12.6605 15.1373C12.6478 15.2111 12.6204 15.2821 12.5804 15.3453C12.5405 15.4086 12.4883 15.4634 12.4271 15.5065C12.3659 15.5496 12.2961 15.58 12.223 15.5963C12.1502 15.6126 12.0749 15.615 12.0013 15.6022C11.9276 15.5893 11.8565 15.5613 11.7933 15.5211C11.7304 15.481 11.676 15.4289 11.6332 15.3678H11.6322C11.0682 14.5656 10.3198 13.9106 9.44958 13.4586C8.57952 13.0068 7.61356 12.7711 6.63318 12.7711C5.65263 12.7712 4.68597 13.0066 3.8158 13.4586C2.94564 13.9106 2.19707 14.5656 1.63318 15.3678C1.59018 15.429 1.53521 15.481 1.47205 15.5211C1.40893 15.5612 1.33865 15.5883 1.26501 15.6012C1.19131 15.614 1.11536 15.6127 1.04236 15.5963C0.969464 15.5799 0.900325 15.5495 0.839233 15.5065C0.778064 15.4634 0.72593 15.4085 0.685913 15.3453C0.645896 15.2821 0.618598 15.211 0.605835 15.1373C0.593171 15.0638 0.595317 14.9884 0.611694 14.9156C0.628104 14.8428 0.658518 14.7736 0.701538 14.7125H0.702515C1.55086 13.5088 2.74472 12.5913 4.12634 12.0817L4.19666 12.0553L4.13416 12.0143C3.3262 11.4776 2.71279 10.6945 2.38416 9.78186C2.05563 8.86936 2.02869 7.87537 2.30896 6.9469C2.58923 6.01844 3.16128 5.20491 3.93982 4.62659C4.71851 4.04825 5.66322 3.73596 6.63318 3.73596ZM11.5961 3.90686C12.6319 3.61476 13.7382 3.70172 14.7152 4.15295C15.6922 4.60424 16.476 5.38984 16.9252 6.3678C17.3743 7.34566 17.4595 8.45186 17.1654 9.48694C16.8711 10.5222 16.2163 11.4188 15.3197 12.0143L15.2572 12.0553L15.3275 12.0817C16.7089 12.5912 17.903 13.5081 18.7513 14.7115C18.7943 14.7726 18.8248 14.8419 18.8412 14.9147C18.8576 14.9876 18.8598 15.0637 18.847 15.1373C18.8342 15.2109 18.8069 15.2813 18.767 15.3444C18.727 15.4075 18.6748 15.4625 18.6136 15.5055C18.5526 15.5485 18.4834 15.579 18.4105 15.5953C18.3377 15.6117 18.2624 15.613 18.1888 15.6002C18.1154 15.5875 18.0448 15.561 17.9818 15.5211C17.9187 15.4812 17.8637 15.4288 17.8207 15.3678C17.2561 14.5663 16.5071 13.9115 15.6371 13.4596C14.7671 13.0078 13.801 12.7721 12.8207 12.7711C12.6698 12.7711 12.5251 12.7108 12.4183 12.6041C12.3116 12.4974 12.2514 12.3527 12.2513 12.2018C12.2513 12.0509 12.3117 11.9062 12.4183 11.7994C12.5251 11.6927 12.6698 11.6325 12.8207 11.6324C13.303 11.6319 13.7803 11.5279 14.2191 11.3278C14.6579 11.1276 15.049 10.8361 15.3656 10.4723C15.6822 10.1085 15.9164 9.68061 16.0541 9.21838C16.1917 8.75609 16.2295 8.26943 16.1635 7.79163C16.0974 7.31388 15.9292 6.85543 15.6713 6.44788C15.4134 6.04045 15.0707 5.6935 14.6674 5.42932C14.264 5.16514 13.809 4.99019 13.3324 4.91663C12.8557 4.84309 12.3681 4.87217 11.9037 5.00256C11.7586 5.04319 11.6035 5.02446 11.472 4.95081C11.3406 4.87701 11.2435 4.7541 11.2025 4.60901C11.1617 4.46386 11.1797 4.30797 11.2533 4.17639C11.3271 4.04473 11.4508 3.94781 11.5961 3.90686ZM7.29236 4.94202C6.63714 4.81169 5.95741 4.87777 5.34021 5.13342C4.72312 5.38903 4.19573 5.82224 3.82458 6.37756C3.45343 6.93303 3.25525 7.58646 3.25525 8.25452C3.25626 9.15003 3.61226 10.009 4.24548 10.6422C4.8787 11.2754 5.7377 11.6314 6.63318 11.6324C7.30104 11.6324 7.95381 11.4341 8.50916 11.0631C9.0645 10.692 9.49762 10.1645 9.7533 9.54749C10.0089 8.93028 10.076 8.25056 9.94568 7.59534C9.81532 6.94025 9.49413 6.33816 9.02185 5.86584C8.54957 5.39356 7.94741 5.0724 7.29236 4.94202Z" fill="#022268" stroke="#022268" stroke-width="0.0759045"/>
</svg>
