<svg width="20" height="20" viewBox="0 0 20 20" fill="none" xmlns="http://www.w3.org/2000/svg">
<path d="M9.1529 12.0458C9.96765 11.5046 10.5865 10.7155 10.9179 9.79519C11.2493 8.87493 11.2756 7.87243 10.993 6.93605C10.7103 5.99967 10.1337 5.17917 9.34847 4.59597C8.56324 4.01277 7.61112 3.69788 6.63301 3.69788C5.6549 3.69788 4.70277 4.01277 3.91754 4.59597C3.13231 5.17917 2.5557 5.99967 2.27304 6.93605C1.99039 7.87243 2.01671 8.87493 2.3481 9.79519C2.6795 10.7155 3.29836 11.5046 4.11311 12.0458C2.72421 12.5581 1.5238 13.4805 0.671016 14.6905C0.62501 14.7557 0.592306 14.8294 0.574774 14.9072C0.557242 14.9851 0.555225 15.0656 0.568839 15.1442C0.582453 15.2229 0.611431 15.298 0.654116 15.3655C0.696801 15.4329 0.752356 15.4912 0.817605 15.5372C0.882853 15.5831 0.956517 15.6157 1.03438 15.6332C1.11225 15.6506 1.19279 15.6526 1.27141 15.6389C1.35002 15.6252 1.42516 15.5961 1.49254 15.5534C1.55992 15.5106 1.61821 15.455 1.66408 15.3897C2.22448 14.5925 2.96849 13.9418 3.83328 13.4926C4.69808 13.0433 5.65826 12.8088 6.63276 12.8088C7.60726 12.8088 8.56746 13.0432 9.43229 13.4923C10.2971 13.9415 11.0412 14.5921 11.6016 15.3893C11.6475 15.4548 11.7057 15.5105 11.7731 15.5534C11.8405 15.5963 11.9157 15.6255 11.9944 15.6392C12.0731 15.653 12.1537 15.6511 12.2317 15.6337C12.3097 15.6162 12.3834 15.5836 12.4487 15.5376C12.514 15.4916 12.5696 15.4332 12.6123 15.3656C12.655 15.2981 12.684 15.2228 12.6975 15.1441C12.7111 15.0654 12.709 14.9848 12.6913 14.9069C12.6737 14.8289 12.6408 14.7553 12.5946 14.6901C11.7419 13.4802 10.5416 12.5581 9.1529 12.0458ZM3.29321 8.25452C3.29321 7.59397 3.48908 6.94825 3.85607 6.39903C4.22305 5.8498 4.74465 5.42173 5.35492 5.16895C5.96519 4.91617 6.63671 4.85003 7.28457 4.97889C7.93243 5.10776 8.52752 5.42585 8.9946 5.89293C9.46168 6.36001 9.77977 6.9551 9.90863 7.60296C10.0375 8.25082 9.97136 8.92234 9.71858 9.53261C9.4658 10.1429 9.03773 10.6645 8.4885 11.0315C7.93927 11.3984 7.29356 11.5943 6.63301 11.5943C5.74754 11.5933 4.89863 11.2411 4.27252 10.615C3.6464 9.98889 3.29421 9.13998 3.29321 8.25452ZM18.6356 15.5362C18.5704 15.5821 18.4968 15.6148 18.419 15.6322C18.3412 15.6497 18.2607 15.6517 18.1822 15.638C18.1036 15.6244 18.0285 15.5954 17.9611 15.5527C17.8937 15.5101 17.8354 15.4545 17.7895 15.3893C17.2284 14.5928 16.4842 13.9427 15.6196 13.4937C14.755 13.0446 13.7952 12.8097 12.8209 12.8088C12.6598 12.8088 12.5054 12.7448 12.3915 12.6309C12.2776 12.5171 12.2136 12.3626 12.2136 12.2016C12.2136 12.0405 12.2776 11.8861 12.3915 11.7722C12.5054 11.6583 12.6598 11.5943 12.8209 11.5943C13.2978 11.5938 13.7691 11.4911 14.203 11.2932C14.6369 11.0953 15.0234 10.8068 15.3365 10.447C15.6496 10.0873 15.882 9.6646 16.0181 9.2075C16.1542 8.7504 16.1908 8.26945 16.1255 7.79702C16.0602 7.32459 15.8944 6.87163 15.6394 6.46861C15.3843 6.0656 15.0459 5.72188 14.647 5.46058C14.248 5.19929 13.7977 5.02647 13.3263 4.95376C12.855 4.88105 12.3735 4.91014 11.9143 5.03907C11.7593 5.08258 11.5934 5.06276 11.453 4.98397C11.3126 4.90517 11.2093 4.77385 11.1657 4.61887C11.1221 4.46389 11.1418 4.29794 11.2205 4.15751C11.2992 4.01707 11.4305 3.91364 11.5854 3.86996C12.63 3.57533 13.7455 3.66349 14.7308 4.11855C15.7161 4.5736 16.5065 5.36563 16.9595 6.35189C17.4125 7.33816 17.4984 8.45379 17.2016 9.49775C16.9048 10.5417 16.2449 11.4453 15.3408 12.0458C16.7295 12.558 17.9298 13.4802 18.7825 14.6901C18.8284 14.7553 18.8611 14.8289 18.8785 14.9067C18.896 14.9845 18.898 15.065 18.8843 15.1436C18.8707 15.2221 18.8417 15.2973 18.799 15.3646C18.7564 15.432 18.7008 15.4903 18.6356 15.5362Z" fill="#FFFBF5"/>
</svg>
