<svg width="20" height="20" viewBox="0 0 20 20" fill="none" xmlns="http://www.w3.org/2000/svg">
<path d="M2.74408 8.92259L8.61105 3.05561C8.92305 2.74362 9.42417 2.72889 9.75395 3.02203L16.387 8.91805C16.5649 9.07619 16.6667 9.30286 16.6667 9.54089V16.25C16.6667 16.7102 16.2936 17.0833 15.8333 17.0833H12.0833C11.6231 17.0833 11.25 16.7102 11.25 16.25V13.3333C11.25 12.8731 10.8769 12.5 10.4167 12.5H7.91667C7.45643 12.5 7.08333 12.8731 7.08333 13.3333V16.25C7.08333 16.7102 6.71024 17.0833 6.25 17.0833H3.33333C2.8731 17.0833 2.5 16.7102 2.5 16.25V9.51184C2.5 9.29083 2.5878 9.07887 2.74408 8.92259Z" stroke="#022268" stroke-width="1.25"/>
</svg>
