<svg width="31" height="31" viewBox="0 0 31 31" fill="none" xmlns="http://www.w3.org/2000/svg">
<path d="M18.4969 8.70496C20.2388 8.70505 21.7147 10.2162 21.7147 12.328C21.7147 13.6029 21.1993 14.8108 20.1718 16.1962C19.1343 17.5948 17.6378 19.0948 15.7665 20.9647L15.7655 20.9657L15.2499 21.4823L14.7352 20.9657L14.7343 20.9647L13.4022 19.6278C12.1431 18.3515 11.1062 17.2453 10.328 16.1962C9.30056 14.8108 8.78504 13.6029 8.78503 12.328C8.78503 10.2163 10.261 8.70523 12.0028 8.70496C13.0029 8.70496 13.9984 9.22241 14.6581 10.0692L15.2499 10.829L15.8417 10.0692C16.5014 9.22232 17.4968 8.70496 18.4969 8.70496Z" stroke="#022268" stroke-width="1.5"/>
</svg>
